<svg width="32" height="32" viewBox="0 0 32 32" fill="none" xmlns="http://www.w3.org/2000/svg">
  <!-- Document base -->
  <path
    d="M6 4C6 2.89543 6.89543 2 8 2H18L26 10V28C26 29.1046 25.1046 30 24 30H8C6.89543 30 6 29.1046 6 28V4Z"
    fill="url(#documentGradient)"
    stroke="white"
    strokeOpacity="0.2"
    strokeWidth="1"
  />

  <!-- Document fold -->
  <path
    d="M18 2L26 10H20C18.8954 10 18 9.10457 18 8V2Z"
    fill="url(#foldGradient)"
    stroke="white"
    strokeOpacity="0.2"
    strokeWidth="1"
  />

  <!-- Neural network overlay -->
  <circle cx="12" cy="14" r="1.5" fill="#00FFFF" />
  <circle cx="20" cy="14" r="1.5" fill="#FF00FF" />
  <circle cx="12" cy="22" r="1.5" fill="#FF00FF" />
  <circle cx="20" cy="22" r="1.5" fill="#00FFFF" />
  <circle cx="16" cy="18" r="2" fill="white" />

  <!-- Connection lines -->
  <path d="M12 15.5L16 18" stroke="#00FFFF" strokeWidth="1" />
  <path d="M20 15.5L16 18" stroke="#FF00FF" strokeWidth="1" />
  <path d="M12 20.5L16 18" stroke="#FF00FF" strokeWidth="1" />
  <path d="M20 20.5L16 18" stroke="#00FFFF" strokeWidth="1" />

  <!-- Pulse effect -->
  <circle
    cx="16"
    cy="18"
    r="4"
    stroke="url(#pulseGradient)"
    strokeWidth="1"
    strokeDasharray="2 2"
    opacity="0.6"
  />

  <!-- Gradients -->
  <defs>
    <linearGradient id="documentGradient" x1="6" y1="2" x2="26" y2="30" gradientUnits="userSpaceOnUse">
      <stop stopColor="#1A1A1A" />
      <stop offset="1" stopColor="#0F0F0F" />
    </linearGradient>
    <linearGradient id="foldGradient" x1="18" y1="2" x2="26" y2="10" gradientUnits="userSpaceOnUse">
      <stop stopColor="#2A2A2A" />
      <stop offset="1" stopColor="#1A1A1A" />
    </linearGradient>
    <linearGradient id="pulseGradient" x1="12" y1="14" x2="20" y2="22" gradientUnits="userSpaceOnUse">
      <stop stopColor="#FF00FF" />
      <stop offset="1" stopColor="#00FFFF" />
    </linearGradient>
  </defs>
</svg>

